{
  "source": "C:\\Users\\Peter\\Desktop\\stuff\\MIUN\\quantitative_research\\video_compression\\videos\\BVI-HD\\BVI-HD_CDVL_videos\\ORIG\\Rowing_1920x1080_30fps.mp4",
  "output": "C:\\Users\\Peter\\Desktop\\stuff\\MIUN\\quantitative_research\\video_compression\\compressed_videos\\BVI-HD\\vp9\\3\\Rowing_1920x1080_30fps_vp9.webm",
  "codec": "vp9",
  "ok": "Input #0, mov,mp4,m4a,3gp,3g2,mj2, from 'C:\\Users\\Peter\\Desktop\\stuff\\MIUN\\quantitative_research\\video_compression\\videos\\BVI-HD\\BVI-HD_CDVL_videos\\ORIG\\Rowing_1920x1080_30fps.mp4':\n  Metadata:\n    major_brand     : isom\n    minor_version   : 512\n    compatible_brands: isomiso2avc1mp41\n    encoder         : Lavf54.28.101\n  Duration: 00:00:05.00, start: 0.000000, bitrate: 259220 kb/s\n  Stream #0:0[0x1](und): Video: h264 (High 4:4:4 Predictive) (avc1 / 0x31637661), yuv420p(progressive), 1920x1080, 259216 kb/s, 30 fps, 30 tbr, 30 tbn (default)\n    Metadata:\n      handler_name    : VideoHandler\n      vendor_id       : [0][0][0][0]\n[out#0/webm @ 0000016cb98a9700] Codec AVOption b:a (set bitrate (in bits/s)) has not been used for any stream. The most likely reason is either wrong type (e.g. a video option with no video streams) or that it is a private option of some decoder which was not actually used for any stream.\nStream mapping:\n  Stream #0:0 -> #0:0 (h264 (native) -> vp9 (libvpx-vp9))\nPress [q] to stop, [?] for help\n[libvpx-vp9 @ 0000016cba3e0440] v1.15.2-100-g40561f514\nOutput #0, webm, to 'C:\\Users\\Peter\\Desktop\\stuff\\MIUN\\quantitative_research\\video_compression\\compressed_videos\\BVI-HD\\vp9\\3\\Rowing_1920x1080_30fps_vp9.webm':\n  Metadata:\n    major_brand     : isom\n    minor_version   : 512\n    compatible_brands: isomiso2avc1mp41\n    encoder         : Lavf62.3.100\n  Stream #0:0(und): Video: vp9, yuv420p(tv, progressive), 1920x1080, q=2-31, 3000 kb/s, 30 fps, 1k tbn (default)\n    Metadata:\n      encoder         : Lavc62.11.100 libvpx-vp9\n      handler_name    : VideoHandler\n      vendor_id       : [0][0][0][0]\n    Side data:\n      cpb: bitrate max/min/avg: 0/0/0 buffer size: 3000000 vbv_delay: N/A\nframe=    0 fps=0.0 q=0.0 size=       0KiB time=N/A bitrate=N/A speed=N/A elapsed=0:00:00.53    \nframe=    2 fps=1.7 q=31.0 size=       1KiB time=00:00:00.06 bitrate=  76.1kbits/s speed=0.0553x elapsed=0:00:01.20    \nframe=    5 fps=2.9 q=60.0 size=       1KiB time=00:00:00.16 bitrate=  30.4kbits/s speed=0.0965x elapsed=0:00:01.72    \nframe=    9 fps=4.0 q=62.0 size=       1KiB time=00:00:00.30 bitrate=  16.9kbits/s speed=0.134x elapsed=0:00:02.24    \nframe=   12 fps=4.3 q=62.0 size=       1KiB time=00:00:00.40 bitrate=  12.7kbits/s speed=0.143x elapsed=0:00:02.79    \nframe=   15 fps=4.5 q=62.0 size=       1KiB time=00:00:00.50 bitrate=  10.1kbits/s speed=0.15x elapsed=0:00:03.32    \nframe=   18 fps=4.7 q=62.0 size=       1KiB time=00:00:00.60 bitrate=   8.5kbits/s speed=0.156x elapsed=0:00:03.84    \nframe=   20 fps=4.6 q=62.0 size=       1KiB time=00:00:00.66 bitrate=   7.6kbits/s speed=0.152x elapsed=0:00:04.37    \nframe=   23 fps=4.7 q=62.0 size=       1KiB time=00:00:00.76 bitrate=   6.6kbits/s speed=0.157x elapsed=0:00:04.89    \nframe=   26 fps=4.8 q=62.0 size=       1KiB time=00:00:00.86 bitrate=   5.9kbits/s speed=0.159x elapsed=0:00:05.43    \nframe=   29 fps=4.9 q=63.0 size=       1KiB time=00:00:00.96 bitrate=   5.2kbits/s speed=0.162x elapsed=0:00:05.96    \nframe=   32 fps=4.9 q=63.0 size=       1KiB time=00:00:01.06 bitrate=   4.8kbits/s speed=0.164x elapsed=0:00:06.48    \nframe=   35 fps=5.0 q=63.0 size=       1KiB time=00:00:01.16 bitrate=   4.3kbits/s speed=0.166x elapsed=0:00:07.02    \nframe=   38 fps=5.0 q=63.0 size=       1KiB time=00:00:01.26 bitrate=   4.0kbits/s speed=0.167x elapsed=0:00:07.57    \nframe=   40 fps=4.9 q=63.0 size=       1KiB time=00:00:01.33 bitrate=   3.8kbits/s speed=0.164x elapsed=0:00:08.11    \nframe=   43 fps=5.0 q=63.0 size=       1KiB time=00:00:01.43 bitrate=   3.5kbits/s speed=0.166x elapsed=0:00:08.65    \nframe=   45 fps=4.9 q=62.0 size=       1KiB time=00:00:01.50 bitrate=   3.4kbits/s speed=0.163x elapsed=0:00:09.17    \nframe=   48 fps=5.0 q=62.0 size=       1KiB time=00:00:01.60 bitrate=   3.2kbits/s speed=0.165x elapsed=0:00:09.69    \nframe=   51 fps=5.0 q=62.0 size=       1KiB time=00:00:01.70 bitrate=   3.0kbits/s speed=0.166x elapsed=0:00:10.22    \nframe=   53 fps=4.9 q=49.0 size=       1KiB time=00:00:01.76 bitrate=   2.9kbits/s speed=0.164x elapsed=0:00:10.76    \nframe=   56 fps=5.0 q=62.0 size=       1KiB time=00:00:01.86 bitrate=   2.7kbits/s speed=0.165x elapsed=0:00:11.28    \nframe=   59 fps=5.0 q=48.0 size=       1KiB time=00:00:01.93 bitrate=   2.6kbits/s speed=0.164x elapsed=0:00:11.80    \nframe=   62 fps=5.0 q=62.0 size=       1KiB time=00:00:02.06 bitrate=   2.5kbits/s speed=0.168x elapsed=0:00:12.31    \nframe=   64 fps=5.0 q=62.0 size=       1KiB time=00:00:02.13 bitrate=   2.4kbits/s speed=0.166x elapsed=0:00:12.83    \nframe=   67 fps=5.0 q=61.0 size=       1KiB time=00:00:02.23 bitrate=   2.3kbits/s speed=0.167x elapsed=0:00:13.36    \nframe=   70 fps=5.0 q=62.0 size=       1KiB time=00:00:02.33 bitrate=   2.2kbits/s speed=0.168x elapsed=0:00:13.89    \nframe=   73 fps=5.0 q=62.0 size=       1KiB time=00:00:02.43 bitrate=   2.1kbits/s speed=0.168x elapsed=0:00:14.45    \nframe=   76 fps=5.1 q=61.0 size=       1KiB time=00:00:02.53 bitrate=   2.0kbits/s speed=0.169x elapsed=0:00:14.98    \nframe=   78 fps=5.0 q=61.0 size=       1KiB time=00:00:02.60 bitrate=   2.0kbits/s speed=0.168x elapsed=0:00:15.51    \nframe=   82 fps=5.1 q=61.0 size=       1KiB time=00:00:02.73 bitrate=   1.9kbits/s speed=0.17x elapsed=0:00:16.06    \nframe=   85 fps=5.1 q=61.0 size=       1KiB time=00:00:02.83 bitrate=   1.8kbits/s speed=0.171x elapsed=0:00:16.60    \nframe=   88 fps=5.1 q=61.0 size=       1KiB time=00:00:02.93 bitrate=   1.7kbits/s speed=0.171x elapsed=0:00:17.12    \nframe=   90 fps=5.1 q=61.0 size=       1KiB time=00:00:03.00 bitrate=   1.7kbits/s speed=0.17x elapsed=0:00:17.66    \nframe=   93 fps=5.1 q=61.0 size=       1KiB time=00:00:03.10 bitrate=   1.6kbits/s speed=0.17x elapsed=0:00:18.18    \nframe=   96 fps=5.1 q=61.0 size=       1KiB time=00:00:03.20 bitrate=   1.6kbits/s speed=0.171x elapsed=0:00:18.69    \nframe=   99 fps=5.2 q=61.0 size=       1KiB time=00:00:03.30 bitrate=   1.5kbits/s speed=0.172x elapsed=0:00:19.21    \nframe=  102 fps=5.2 q=61.0 size=       1KiB time=00:00:03.40 bitrate=   1.5kbits/s speed=0.172x elapsed=0:00:19.73    \nframe=  105 fps=5.2 q=61.0 size=       1KiB time=00:00:03.50 bitrate=   1.4kbits/s speed=0.173x elapsed=0:00:20.25    \nframe=  108 fps=5.2 q=61.0 size=       1KiB time=00:00:03.60 bitrate=   1.4kbits/s speed=0.173x elapsed=0:00:20.77    \nframe=  112 fps=5.3 q=60.0 size=       1KiB time=00:00:03.73 bitrate=   1.4kbits/s speed=0.175x elapsed=0:00:21.28    \nframe=  115 fps=5.3 q=60.0 size=       1KiB time=00:00:03.83 bitrate=   1.3kbits/s speed=0.176x elapsed=0:00:21.81    \nframe=  118 fps=5.3 q=60.0 size=       1KiB time=00:00:03.93 bitrate=   1.3kbits/s speed=0.176x elapsed=0:00:22.33    \nframe=  122 fps=5.3 q=61.0 size=       1KiB time=00:00:04.06 bitrate=   1.2kbits/s speed=0.178x elapsed=0:00:22.84    \nframe=  126 fps=5.4 q=60.0 size=       1KiB time=00:00:04.20 bitrate=   1.2kbits/s speed=0.18x elapsed=0:00:23.35    \nframe=  126 fps=5.3 q=60.0 size=       1KiB time=00:00:04.20 bitrate=   1.2kbits/s speed=0.176x elapsed=0:00:23.87    \nframe=  126 fps=5.2 q=60.0 size=       1KiB time=00:00:04.20 bitrate=   1.2kbits/s speed=0.172x elapsed=0:00:24.39    \nframe=  126 fps=5.1 q=60.0 size=       1KiB time=00:00:04.20 bitrate=   1.2kbits/s speed=0.169x elapsed=0:00:24.91    \nframe=  126 fps=5.0 q=60.0 size=       1KiB time=00:00:04.20 bitrate=   1.2kbits/s speed=0.165x elapsed=0:00:25.44    \nframe=  126 fps=4.9 q=60.0 size=       1KiB time=00:00:04.20 bitrate=   1.2kbits/s speed=0.162x elapsed=0:00:25.97    \nframe=  126 fps=4.8 q=60.0 size=       1KiB time=00:00:04.20 bitrate=   1.2kbits/s speed=0.159x elapsed=0:00:26.48    \n[out#0/webm @ 0000016cb98a9700] video:1982KiB audio:0KiB subtitle:0KiB other streams:0KiB global headers:0KiB muxing overhead: 0.087311%\nframe=  150 fps=5.6 q=60.0 Lsize=    1984KiB time=00:00:05.00 bitrate=3250.1kbits/s speed=0.187x elapsed=0:00:26.79    \n",
  "seconds": 27.042094945907593,
  "probe_out": {}
}